HIERARCHY
ROOT hip
{
	OFFSET	0.00  0.00  0.00 
	CHANNELS 6 Xposition Yposition Zposition Xrotation Zrotation Yrotation
	JOINT abdomen
	{
		OFFSET	0.000000 0.000000 0.000000
		CHANNELS 3 Xrotation Zrotation Yrotation
		JOINT chest
		{
			OFFSET	0.000000 5.018152 -1.882228
			CHANNELS 3 Xrotation Zrotation Yrotation
			JOINT neckDummy
			{
				OFFSET	0.000000 8.316447 0.784897
				CHANNELS 3 Xrotation Yrotation Zrotation
				JOINT neck
				{
					OFFSET	0.000000 2.280413 -0.392801
					CHANNELS 3 Xrotation Zrotation Yrotation
					JOINT head
					{
						OFFSET	0.000000 3.496879 0.529469
						CHANNELS 3 Xrotation Zrotation Yrotation
						JOINT figureHair
						{
							OFFSET	0.000000 4.699570 0.720622
							CHANNELS 3 Zrotation Yrotation Xrotation
							End Site
							{
								OFFSET 0.000000 -6.419331 0.000000
							}
						}
					}
				}
			}
			JOINT lCollar
			{
				OFFSET	0.599237 8.316447 0.784897
				CHANNELS 3 Yrotation Zrotation Xrotation
				JOINT lShldr
				{
					OFFSET	6.421198 0.010146 -0.332128
					CHANNELS 3 Zrotation Yrotation Xrotation
					JOINT lForeArm
					{
						OFFSET	10.552783 0.025574 0.125508
						CHANNELS 3 Yrotation Zrotation Xrotation
						JOINT lHand
						{
							OFFSET	11.035963 0.319619 0.041520
							CHANNELS 3 Zrotation Yrotation Xrotation
							End Site
							{
								OFFSET 10.353753 0.000000 0.000000
							}
						}
					}
				}
			}
			JOINT rCollar
			{
				OFFSET	-0.599237 8.316447 0.784897
				CHANNELS 3 Yrotation Zrotation Xrotation
				JOINT rShldr
				{
					OFFSET	-6.421198 0.010146 -0.332128
					CHANNELS 3 Zrotation Yrotation Xrotation
					JOINT rForeArm
					{
						OFFSET	-10.552783 0.025574 0.125508
						CHANNELS 3 Yrotation Zrotation Xrotation
						JOINT rHand
						{
							OFFSET	-11.035963 0.319619 0.041520
							CHANNELS 3 Zrotation Yrotation Xrotation
							End Site
							{
								OFFSET -10.353753 0.000000 0.000000
							}
						}
					}
				}
			}
		}
	}
	JOINT lThigh
	{
		OFFSET	4.500466 -6.400484 -1.832696
		CHANNELS 3 Xrotation Zrotation Yrotation
		JOINT lShin
		{
			OFFSET	-1.359117 -18.918689 1.179887
			CHANNELS 3 Xrotation Zrotation Yrotation
			JOINT lFoot
			{
				OFFSET	-0.652380 -17.215186 -0.312137
				CHANNELS 3 Xrotation Yrotation Zrotation
				End Site
				{
					OFFSET 0.000000 0.000000 10.353752
				}
			}
		}
	}
	JOINT rThigh
	{
		OFFSET	-4.500466 -6.400484 -1.832696
		CHANNELS 3 Xrotation Zrotation Yrotation
		JOINT rShin
		{
			OFFSET	1.359117 -18.918689 1.179887
			CHANNELS 3 Xrotation Zrotation Yrotation
			JOINT rFoot
			{
				OFFSET	0.652380 -17.215186 -0.312137
				CHANNELS 3 Xrotation Yrotation Zrotation
				End Site
				{
					OFFSET 0.000000 0.000000 10.353752
				}
			}
		}
	}
}
MOTION
Frames:     9
Frame Time: 0.066667
-15.379983 42.109997 4.899996 4.003910 -13.095700 -169.104004 6.425780 -8.525390 3.574220 0.000000 0.000000 0.000000 0.000000 0.000000 0.000000 -15.263700 1.972660 -10.517600 0.000000 0.000000 0.000000 0.000000 0.000000 0.000000 0.000000 0.000000 0.000000 -34.537399 -6.491000 72.528397 -96.695702 41.632198 40.080200 -19.419901 -12.344100 0.253402 0.000000 0.000000 0.000000 52.175098 7.231290 69.104599 113.598000 -47.848900 66.799103 16.271000 10.525300 -13.935000 -0.224076 -5.048004 -5.431268 6.036500 -2.555216 -0.209865 1.906790 -7.607850 -5.233568 -2.080791 -27.938866 -19.562601 25.586311 4.115934 6.529848 -9.729506 -6.703445 3.061970 
-16.309958 42.349995 6.459996 2.802730 -16.962900 -163.138000 7.998050 -12.548800 4.990230 0.000000 0.000000 0.000000 0.000000 0.000000 0.000000 -11.992200 0.771484 -16.533199 0.000000 0.000000 0.000000 0.000000 0.000000 0.000000 0.000000 0.000000 0.000000 -42.417099 -43.360001 69.365196 -131.514008 41.176201 54.906799 -12.418300 -22.008600 -44.507999 0.000000 0.000000 0.000000 48.155998 27.206800 56.185799 106.521004 -49.375198 54.144299 -2.886240 4.467710 -51.906898 -6.529284 -10.207976 -3.474992 15.630970 -1.367058 -3.611746 0.013682 -11.611326 -6.989608 -5.577638 -34.283287 -20.038437 34.822094 4.481840 5.596314 -13.549100 -8.858637 2.071210 
-16.200001 41.899998 6.359999 1.533200 -17.597700 -155.020004 8.144530 -13.252000 3.904010 0.000000 0.000000 0.000000 0.000000 0.000000 0.000000 -6.113280 0.195313 -21.757799 0.000000 0.000000 0.000000 0.000000 0.000000 0.000000 0.000000 0.000000 0.000000 -58.268398 -53.316898 71.303802 -83.713097 39.181198 30.328100 -0.396832 -5.890290 -39.673401 0.000000 0.000000 0.000000 37.918098 27.961201 66.989197 119.603996 -46.599201 66.436501 18.418301 14.534200 -31.547400 -8.588812 -10.247119 -4.382628 18.603592 -1.181827 -4.698256 -0.326896 -17.379953 -10.458538 -3.252156 -35.058723 -23.981283 37.464115 5.244290 2.666809 -15.864153 -12.322759 -1.409956 
-15.569975 41.419994 6.409997 -2.724610 -15.048800 -148.867004 8.945310 -11.005900 2.380950 0.000000 0.000000 0.000000 0.000000 0.000000 0.000000 -19.716801 -3.203130 -22.812500 0.000000 0.000000 0.000000 0.000000 0.000000 0.000000 0.000000 0.000000 0.000000 -47.902599 -58.213299 85.304398 -109.078003 43.654598 46.751598 -14.869000 -22.770599 -24.392900 0.000000 0.000000 0.000000 40.052101 26.093300 50.455898 97.273102 -42.643902 55.853901 -5.970620 -9.865770 -24.636200 -12.759794 -9.567071 -7.787202 16.903143 -0.644503 -4.400631 0.956594 -19.655594 -11.865056 -5.617186 -33.276600 -27.240181 38.433632 5.472046 0.881925 -16.934368 -13.404003 -1.301047 
-15.050009 40.790001 6.870005 -6.386720 -11.767600 -146.018005 7.978520 -10.166000 3.896480 0.000000 0.000000 0.000000 0.000000 0.000000 0.000000 -25.146500 -2.382810 -25.381300 0.000000 0.000000 0.000000 0.000000 0.000000 0.000000 0.000000 0.000000 0.000000 -56.948200 -42.284302 67.153702 -109.124001 37.103100 37.645699 -0.975512 -4.107800 -68.532303 0.000000 0.000000 0.000000 35.167198 34.253399 73.803001 121.834000 -41.790298 68.410797 27.657200 20.471600 -18.995001 -19.035082 -8.988598 -10.296922 17.720078 -0.761603 -2.805969 2.166133 -20.889130 -11.103815 -10.197122 -32.727322 -29.411013 39.976631 6.604647 -1.848947 -16.922949 -10.230537 0.643626 
-14.960035 39.000004 5.999999 -8.662110 -8.632810 -151.425995 5.595700 -7.597660 11.640600 0.000000 0.000000 0.000000 0.000000 0.000000 0.000000 -20.654301 -2.490230 -30.058599 0.000000 0.000000 0.000000 0.000000 0.000000 0.000000 0.000000 0.000000 0.000000 -45.998100 -16.338301 70.855598 -86.099197 41.605499 35.655800 -4.702610 -7.939880 -17.291000 0.000000 0.000000 0.000000 42.223900 37.235100 46.108898 81.278198 -55.841801 36.618000 -6.200940 -3.430280 -43.059502 -31.544153 -7.984969 -9.599339 36.220936 -0.405147 -5.817631 -7.645307 -12.070801 -9.977571 -24.003366 -30.915939 -18.844843 51.185001 7.879199 -4.205562 -20.254326 -8.468952 2.976791 
-15.750026 37.399994 6.099996 -6.074220 -4.140620 -162.725006 5.039060 -2.763670 13.681200 0.000000 0.000000 0.000000 0.000000 0.000000 0.000000 -20.175800 0.644531 -27.167900 0.000000 0.000000 0.000000 0.000000 0.000000 0.000000 0.000000 0.000000 0.000000 -39.006401 -1.511580 57.134300 -51.417999 25.951099 25.152300 2.352190 -18.601500 -17.012899 0.000000 0.000000 0.000000 35.125999 20.402800 43.389400 20.257900 -29.808100 0.872194 0.625032 -7.171520 -38.020699 -40.896820 -1.748385 -3.634541 56.743393 1.850365 -6.822198 -20.776119 -7.676102 -7.853904 -33.475494 -23.573172 -10.256590 61.087299 6.074497 -0.459132 -24.761948 -8.909863 5.443564 
-17.020018 37.769997 5.089997 -6.904300 -5.322270 169.608002 6.591800 0.205078 4.902340 0.000000 0.000000 0.000000 0.000000 0.000000 0.000000 -19.921900 6.962890 6.065640 0.000000 0.000000 0.000000 0.000000 0.000000 0.000000 0.000000 0.000000 0.000000 -10.970400 -17.620399 29.449100 -42.614399 29.080200 15.049200 19.025499 -21.688299 -28.993900 0.000000 0.000000 0.000000 21.895000 -13.667700 21.441299 22.965500 -30.057199 6.073840 2.687580 -14.511700 -72.171501 -38.085514 4.267827 6.449697 59.705837 0.333303 -1.325700 -26.079081 2.283813 -6.170275 -39.985111 -14.656636 1.427054 52.380661 0.781436 8.093132 -18.205744 -4.686277 8.711630 
-13.789957 38.980000 6.529997 -5.039060 -12.119100 113.594002 5.908200 2.187500 -4.218750 0.000000 0.000000 0.000000 0.000000 0.000000 0.000000 -7.822270 8.056640 41.378300 0.000000 0.000000 0.000000 0.000000 0.000000 0.000000 0.000000 0.000000 0.000000 33.187500 -21.284000 -16.495100 -49.972698 42.241901 16.905399 27.015499 -14.559200 -31.011801 0.000000 0.000000 0.000000 -13.475300 -12.298800 0.357934 55.417500 -49.263599 26.718800 -10.445000 9.010600 -28.551300 -25.663891 1.758009 12.447222 44.703163 -0.319253 2.479924 -9.802129 1.341362 -6.828484 -36.971756 -4.862942 6.975138 20.045538 4.390011 -3.018479 -3.420374 -1.908243 12.462599 
